<svg width="671" height="210" viewBox="0 0 671 210" fill="none" xmlns="http://www.w3.org/2000/svg">
<g clip-path="url(#clip0_73_1188)">
<path d="M125.756 82.7327C143.307 82.7327 157.534 68.5054 157.534 50.9551C157.534 33.4048 143.307 19.1775 125.756 19.1775C108.206 19.1775 93.9788 33.4048 93.9788 50.9551C93.9788 68.5054 108.206 82.7327 125.756 82.7327Z" fill="#F44528"/>
<path d="M194.579 125.876C194.579 125.876 184.029 114.241 192.402 81.5507C192.402 81.5507 143.348 86.721 125.757 93.5823C108.891 100.167 90.2752 108.555 74.1956 126.924C53.5368 150.516 58.3928 171.818 58.5051 172.297C58.5051 172.297 66.9377 158.799 84.0049 147.321C102.816 134.675 126.767 128.839 147.029 126.924C166.603 125.068 185.511 124.933 194.579 125.876Z" fill="#F8B62F"/>
<path d="M58.4979 172.297C58.4979 172.297 57.7123 185.151 74.1884 210H39.4104C39.4104 210 39.3206 191.519 58.4979 172.297Z" fill="#F8B62F"/>
<path d="M133.12 171.384C133.12 171.384 121.964 157.085 130.067 142.27C130.067 142.27 107.051 142.098 92.3185 152.207C77.5857 162.315 80.2046 175.746 80.2046 175.746C80.2046 175.746 82.4642 171.765 99.8158 168.638C116.105 165.705 132.282 171.152 133.112 171.384H133.12Z" fill="#A2CA02"/>
<path d="M80.204 175.739C80.204 175.739 82.1195 184.762 86.1301 189.035H73.5373C73.5373 189.035 71.9211 182.54 80.204 175.739Z" fill="#A2CA02"/>
<path d="M37.8383 0C37.8383 0 30.6926 25.6271 4.71387 33.4761C4.71387 33.4761 27.7296 46.3757 40.4571 60.8466C53.1846 75.3175 66.2638 100.421 56.4993 126.923C56.4993 126.923 86.4886 112.28 86.8328 76.7092C87.177 41.138 60.854 17.2618 37.8383 0Z" fill="#F31366"/>
<path d="M37.5766 163.976C37.5766 163.976 54.6588 149.595 56.492 126.931C54.1051 129.467 33.3341 142.419 11.1638 147.328L37.5766 163.976Z" fill="#F31366"/>
<path d="M20.6663 60.6745C20.6663 60.6745 35.833 69.4812 43.8541 86.1295C51.8752 102.778 38.5342 117.249 30.775 118.468C30.775 118.468 37.6737 109.983 23.1654 98.61C17.5012 94.173 8.89653 88.5687 0 84.7303C0 84.7303 17.4339 81.5054 20.6588 60.667L20.6663 60.6745Z" fill="#1331A1"/>
<path d="M30.7825 118.468C30.7825 118.468 28.7548 133.066 20.8459 137.384L7.18311 128.36C7.18311 128.36 21.1751 125.502 30.7825 118.468Z" fill="#1331A1"/>
<path d="M596.429 128.301C597.926 130.097 599.422 131.593 599.722 131.593C600.171 131.593 607.728 126.281 612.142 122.914C612.891 122.315 611.095 119.247 608.177 116.254C603.687 111.69 598.674 108.622 592.838 106.901C581.016 103.534 570.316 105.031 560.589 111.615C542.856 123.363 540.985 150.823 556.922 165.488C564.18 172.297 571.289 174.916 581.988 174.991C592.389 174.991 600.694 171.699 607.428 164.964C614.163 158.23 613.938 158.53 607.354 153.666C604.286 151.347 601.218 149.251 600.619 149.027C599.946 148.803 598.524 149.775 596.878 151.721C592.539 156.809 588.274 158.829 582.063 158.829C576.152 158.904 572.336 157.332 568.745 153.516C561.861 146.333 562.01 133.464 568.969 126.43C576.676 118.798 589.171 119.621 596.429 128.301Z" fill="#1D1D1B"/>
<path d="M546.522 170.651C545.699 168.706 539.638 153.442 532.979 136.606L520.932 106.153H510.906C505.369 106.153 500.73 106.378 500.506 106.752C500.356 107.051 494.37 121.941 487.337 139.824C480.228 157.707 474.317 172.821 474.093 173.27C473.794 174.018 475.889 174.243 483.072 174.243H492.35L494.595 168.032L496.839 161.897L510.682 161.672L524.524 161.523L526.918 167.883L529.388 174.243H547.944L546.522 170.651ZM511.527 147.605C506.813 147.605 502.922 147.381 502.922 147.157C502.922 146.932 504.868 141.545 507.187 135.185L511.452 123.662L515.792 135.409C518.186 141.844 520.132 147.231 520.132 147.381C520.132 147.531 516.241 147.605 511.527 147.605Z" fill="#1D1D1B"/>
<path d="M404.282 106.153V140.198V174.243H412.887H421.492V154.34V134.437L438.028 154.34L454.489 174.243H461.971H469.379V140.198V106.153H460.774H452.17L452.02 125.907L451.795 145.66L435.484 125.907L419.172 106.153H411.69H404.282Z" fill="#1D1D1B"/>
<path d="M363.877 160.026V153.292V146.558H377.72H391.562V139.45V132.341H377.72H363.877V126.356V120.37H379.59H395.303V113.261V106.153H370.986H346.668V140.198V174.243H371.36H396.052V167.134V160.026H379.964H363.877Z" fill="#1D1D1B"/>
<path d="M313.971 132.641C309.706 131.219 305.216 129.573 304.019 128.974C300.278 127.029 300.278 123.437 304.094 121.492C308.958 118.948 315.991 121.043 320.78 126.43L323.473 129.348L329.908 124.56L336.268 119.771L333.799 116.928C328.861 111.166 324.371 108.173 318.236 106.303C307.76 103.16 294.142 106.452 288.231 113.561C282.021 121.043 282.844 133.464 289.877 139.375C293.469 142.368 296.686 143.864 307.386 147.231C318.759 150.823 320.63 151.87 320.331 154.564C319.433 161.822 303.645 160.625 297.435 152.843C296.312 151.421 295.115 150.299 294.816 150.299C293.693 150.299 282.32 158.754 282.32 159.577C282.32 161.149 286.436 166.162 289.728 168.631C295.34 172.671 300.428 174.392 308.583 174.841C326.691 175.739 337.989 167.883 337.989 154.414C337.989 143.565 332.677 138.776 313.971 132.641Z" fill="#1D1D1B"/>
<path d="M643.868 89.6171C648.507 92.3108 653.894 93.1338 659.057 91.9366C666.465 90.2905 670.206 86.1004 670.206 79.4411C670.206 72.7818 666.839 69.8637 655.54 66.1225C649.255 63.9526 645.963 61.8575 645.963 59.8373C645.963 57.5926 648.208 55.3479 651.201 54.5248C654.867 53.5521 659.282 55.1234 662.05 58.4157L663.995 60.6604L666.539 58.9394C667.961 57.9667 669.158 56.7695 669.158 56.2458C669.158 54.7493 665.342 50.7836 662.349 49.2123C660.778 48.4641 657.486 47.6411 655.166 47.4166C645.514 46.5935 638.481 51.8312 638.481 59.7625C638.481 66.0477 641.997 69.2651 653.146 73.0063C658.608 74.802 663.172 77.9446 663.172 79.8152C663.172 81.5362 659.88 84.4543 657.112 85.2025C652.847 86.3997 648.507 84.978 645.065 81.3865L642.222 78.4684L639.603 80.1145C638.181 81.0872 636.984 81.9851 636.984 82.2096C636.984 83.8557 640.576 87.7465 643.868 89.6171Z" fill="#1D1D1B"/>
<path d="M633.991 91.9365V88.5694V85.2023H621.645H609.299V78.8423V72.4823H619.4H629.502V69.1153V65.7482H619.4H609.299V60.1364V54.5247H621.271H633.243V51.1576V47.7905H617.53H601.817V69.8635V91.9365H617.904H633.991Z" fill="#1D1D1B"/>
<path d="M582.962 49.2871C575.779 46.1445 566.351 46.818 559.991 51.0081C553.78 55.1234 550.787 61.3337 550.713 70.2378C550.638 79.5159 554.753 86.25 562.684 90.2157C568.596 93.059 577.125 93.1338 583.186 90.3653C591.342 86.5493 595.831 79.2914 595.831 69.8636C595.831 60.4359 590.968 52.8787 582.962 49.2871ZM573.481 85.21C560.387 85.1351 553.803 70.769 561.884 59.8448C562.857 58.4979 565.101 56.7022 566.822 55.9539C571.536 53.7092 578.345 54.3078 582.011 57.2259C593.609 66.4292 587.848 85.2848 573.481 85.21Z" fill="#1D1D1B"/>
<path d="M567.398 42.1788C568.819 40.9068 569.193 40.832 571.363 41.7299C577.2 44.1991 581.839 43.376 583.859 39.4852C584.532 38.288 584.457 37.6146 583.41 36.4922C581.839 34.7713 580.641 34.6965 579.369 36.1929C578.172 37.6146 575.703 37.6146 573.832 36.1929C571.288 34.2475 567.024 34.7713 564.255 37.2405C562.235 39.0362 561.936 39.7096 562.609 40.7572C564.105 43.3012 565.677 43.7501 567.398 42.1788Z" fill="#1D1D1B"/>
<path d="M522.429 91.4128C525.273 92.1611 526.021 92.61 525.497 93.4331C525.198 94.0317 524.674 95.3037 524.449 96.2016C523.926 97.7729 524.15 97.9225 526.47 97.9225C529.762 97.9225 531.483 99.7183 529.388 100.841C528.565 101.29 526.769 101.439 525.347 101.215C522.953 100.766 522.654 100.915 522.205 102.786C521.531 105.48 522.579 106.153 527.592 106.153C533.578 106.153 536.646 104.058 536.721 99.9427C536.721 97.698 533.802 94.1813 531.857 94.1813C529.912 94.1813 530.585 92.7597 532.83 92.2359C539.414 90.8143 544.128 87.971 547.121 83.8557L548.692 81.5361L546.074 79.5159L543.38 77.4957L540.611 80.1893C530.211 90.3653 514.273 84.0801 514.273 69.8636C514.273 65.1498 515.92 61.2589 519.287 58.1163C521.98 55.5723 524.749 54.5248 528.939 54.5248C533.353 54.5248 536.646 55.9465 539.938 59.3883L542.632 62.1568L545.325 60.5107C546.747 59.6128 547.944 58.4156 547.944 57.817C547.944 56.0961 542.108 50.7836 538.516 49.2123C531.633 46.1446 522.055 46.8928 515.845 51.0081C500.281 61.3337 504.397 86.7738 522.429 91.4128Z" fill="#1D1D1B"/>
<path d="M500.056 91.9365V69.8635V47.7905H496.315H492.574V69.8635V91.9365H496.315H500.056Z" fill="#1D1D1B"/>
<path d="M467.134 54.5247V73.2306V91.9365H470.876H474.617V73.2306V54.5247H481.725H488.833V51.1576V47.7905H470.876H452.918V51.1576V54.5247H460.026H467.134Z" fill="#1D1D1B"/>
<path d="M451.421 91.9365V88.5694V85.2023H439.45H427.478V78.8423V72.4823H437.579H447.68V69.1153V65.7482H437.579H427.478V60.1364V54.5247H439.075H450.673V51.1576V47.7905H435.334H419.995V69.8635V91.9365H435.708H451.421Z" fill="#1D1D1B"/>
<path d="M407.649 49.7361C405.105 48.3892 403.085 48.1648 393.283 47.9403L381.835 47.7158V91.9366H388.569V75.4754H396.426C405.554 75.4754 408.098 74.6523 411.54 70.7615C417.152 64.4015 415.132 53.6269 407.649 49.7361ZM406.998 63.9525C405.876 67.17 402.958 68.2923 395.55 68.2923H389.19V53.9262L396.224 54.2255C402.359 54.4499 403.557 54.6744 405.128 56.1709C407.373 58.2659 407.971 61.0344 406.998 63.9525Z" fill="#1D1D1B"/>
<path d="M333.948 91.9365V77.4955V63.1294L340.308 75.999L346.594 88.9435H349.212H351.906L358.565 75.6249L365.3 62.3811V77.1214L365.374 91.9365H369.116H372.857V69.8635V47.7905H368.442H364.028L356.695 62.8301L349.362 77.8696L342.104 62.8301L334.771 47.7905H330.656H326.466V69.8635V91.9365H330.207H333.948Z" fill="#1D1D1B"/>
<path d="M317.412 59.1639C315.017 54.3003 311.351 50.8585 306.637 48.8382C305.066 48.2396 301.624 47.5662 298.856 47.3417C290.326 46.818 282.769 50.2599 278.578 56.6199C275.511 61.2589 274.613 65.0749 274.987 71.8091C275.585 82.0599 281.347 89.0933 291.298 91.6373C299.903 93.8072 309.63 91.1136 314.793 85.0528C320.405 78.5432 321.527 67.3196 317.412 59.1639ZM297.606 85.21C284.512 85.1351 277.927 70.769 286.008 59.8448C286.981 58.4979 289.226 56.7022 290.947 55.9539C295.661 53.7092 302.47 54.3078 306.136 57.2259C317.734 66.4292 311.972 85.2848 297.606 85.21Z" fill="#1D1D1B"/>
<path d="M243.785 90.5897C249.023 92.9093 257.254 92.9093 262.641 90.5149C266.158 88.9436 272.593 83.1822 272.593 81.6857C272.593 81.3116 271.395 80.2641 269.899 79.3662L267.205 77.5704L264.437 80.2641C254.785 89.6919 239.745 84.6787 238.398 71.5845C237.725 64.5511 240.568 59.0142 246.479 56.0212C252.166 53.1031 260.471 54.8241 264.661 59.8372C265.709 61.0344 266.831 62.0071 267.13 62.0071C267.505 62.0071 268.926 61.1092 270.273 59.9121L272.667 57.8918L269.974 54.7492C268.552 53.0283 265.559 50.7836 263.389 49.6612C259.124 47.641 251.492 46.6683 247.527 47.7158C240.793 49.4368 235.33 54.001 232.487 60.0617C229.943 65.449 229.943 74.2782 232.487 79.5907C234.732 84.2297 238.922 88.345 243.785 90.5897Z" fill="#1D1D1B"/>
</g>
<defs>
<clipPath id="clip0_73_1188">
<rect width="670.206" height="210" fill="white"/>
</clipPath>
</defs>
</svg>
